<?xml version="1.0" standalone="no"?>
<!DOCTYPE svg PUBLIC "-//W3C//DTD SVG 20010904//EN"
 "http://www.w3.org/TR/2001/REC-SVG-20010904/DTD/svg10.dtd">
<svg version="1.0" xmlns="http://www.w3.org/2000/svg"
 width="400.000000pt" height="400.000000pt" viewBox="0 0 400.000000 400.000000"
 preserveAspectRatio="xMidYMid meet">
<metadata>
Created by potrace 1.14, written by Peter Selinger 2001-2017
</metadata>
<g transform="translate(0.000000,400.000000) scale(0.100000,-0.100000)"
fill="#000000" stroke="none">
<path d="M721 3963 c-1 -21 -2 -51 -2 -67 -1 -17 5 -33 15 -38 19 -11 22 -48
4 -48 -10 0 -13 -25 -13 -93 l0 -92 44 0 c37 0 45 3 46 20 1 11 5 34 8 50 8
37 -6 101 -21 98 -6 -2 -9 4 -5 13 3 8 -2 21 -13 29 -16 12 -17 17 -6 34 6 12
12 32 12 46 0 14 5 25 10 25 16 0 12 18 -10 40 -11 11 -31 20 -44 20 -21 0
-24 -5 -25 -37z"/>
<path d="M910 3990 c0 -5 7 -7 15 -4 8 4 15 8 15 10 0 2 -7 4 -15 4 -8 0 -15
-4 -15 -10z"/>
<path d="M2376 3981 c-4 -5 -2 -12 3 -15 5 -4 12 -2 15 3 4 5 2 12 -3 15 -5 4
-12 2 -15 -3z"/>
<path d="M945 3970 c3 -5 8 -10 11 -10 2 0 4 5 4 10 0 6 -5 10 -11 10 -5 0 -7
-4 -4 -10z"/>
<path d="M993 3963 c-33 -17 -40 -36 -24 -62 14 -21 41 -5 41 24 0 14 7 28 15
31 15 6 21 25 8 23 -5 0 -23 -8 -40 -16z"/>
<path d="M3035 3970 c-3 -5 1 -20 9 -32 16 -22 16 -22 16 10 0 31 -12 42 -25
22z"/>
<path d="M1153 3929 c19 -11 24 -40 5 -36 -6 1 -14 -6 -16 -15 -2 -10 2 -18 9
-18 7 0 20 -7 30 -16 15 -14 22 -14 47 -3 24 10 29 18 28 46 -1 37 -4 38 -41
21 -22 -10 -28 -9 -41 10 -8 12 -21 22 -27 22 -7 0 -4 -5 6 -11z"/>
<path d="M1927 3933 c-4 -3 -7 -31 -7 -62 0 -68 16 -58 26 17 6 48 -1 64 -19
45z"/>
<path d="M620 3866 c14 -8 43 -17 65 -20 l40 -6 -34 15 c-18 9 -47 18 -65 21
l-31 5 25 -15z"/>
<path d="M2600 3873 c0 -6 45 -13 103 -17 56 -4 119 -10 140 -13 l37 -6 0
-152 c0 -106 -4 -163 -14 -185 -9 -23 -11 -44 -4 -79 5 -25 8 -120 6 -211 -3
-140 -1 -165 12 -167 8 -2 23 10 32 27 14 25 23 30 56 30 26 0 42 5 46 15 3 8
14 15 25 15 14 0 21 -8 23 -29 3 -26 5 -28 28 -19 23 9 24 10 8 22 -27 20 -22
38 7 30 23 -6 25 -3 25 28 0 38 21 55 74 60 33 3 49 28 18 28 -12 0 -22 8 -25
23 -3 12 -5 138 -6 280 l-2 257 23 9 c22 8 22 8 -7 15 -16 3 -127 13 -246 21
-118 8 -248 18 -287 21 -46 4 -72 3 -72 -3z m528 -56 c9 -7 12 -80 12 -302 l0
-292 -87 -41 c-136 -63 -127 -67 -131 68 -2 63 0 139 3 168 6 46 9 52 26 47
25 -8 24 7 -1 30 -18 17 -20 31 -20 166 0 81 3 154 6 163 5 12 20 14 92 9 48
-3 93 -10 100 -16z"/>
<path d="M1373 3853 c-36 -14 10 -63 59 -63 31 0 47 18 27 31 -12 8 -12 11 1
18 28 19 0 24 -35 8 -44 -21 -49 -21 -41 -2 3 8 4 15 3 14 -1 0 -8 -3 -14 -6z"/>
<path d="M1560 3817 c0 -9 -4 -17 -10 -17 -5 0 -10 -8 -10 -19 0 -12 11 -21
33 -28 26 -8 32 -14 29 -35 -2 -21 3 -27 25 -31 37 -7 39 -3 14 22 -26 26 -26
31 -1 31 11 0 20 7 20 16 0 9 -5 12 -12 8 -7 -4 -4 2 6 14 24 28 17 36 -19 22
-24 -9 -32 -7 -52 11 -19 19 -23 20 -23 6z"/>
<path d="M3306 3811 c-36 -17 -55 -36 -56 -54 0 -4 25 -5 55 -3 51 4 57 2 72
-21 l16 -25 12 29 c14 31 8 42 -34 73 -26 18 -28 18 -65 1z"/>
<path d="M3425 3797 c28 -23 28 -25 11 -42 -10 -10 -14 -25 -11 -34 4 -9 9
-97 12 -196 3 -99 6 -181 8 -183 2 -2 13 3 25 10 22 13 22 15 16 220 -4 165
-2 209 8 217 9 8 48 10 112 7 68 -4 86 -3 59 3 -22 5 -91 12 -154 16 l-114 7
28 -25z"/>
<path d="M1789 3748 c-45 -21 -46 -23 -48 -70 -1 -27 3 -48 9 -48 5 0 10 -7
10 -16 0 -13 -9 -15 -50 -12 -47 3 -49 2 -36 -17 10 -15 22 -19 52 -17 22 2
43 8 49 13 5 5 17 9 27 9 10 0 18 3 18 7 0 21 -28 81 -45 96 -20 18 -19 18 13
12 29 -6 32 -4 32 17 0 13 5 29 12 36 16 16 10 15 -43 -10z"/>
<path d="M1210 3756 c0 -12 55 -29 105 -31 l50 -3 -32 13 c-37 16 -123 30
-123 21z"/>
<path d="M1397 3730 c-3 -13 1 -21 15 -26 11 -3 22 -3 25 0 4 3 1 6 -5 6 -7 0
-12 6 -12 14 0 23 -17 28 -23 6z"/>
<path d="M1923 3736 c4 -10 2 -25 -4 -32 -7 -9 -10 -37 -7 -74 l4 -60 -32 0
c-35 0 -46 -15 -32 -42 7 -15 4 -18 -22 -18 -16 0 -30 5 -30 10 0 6 -9 10 -20
10 -13 0 -18 -5 -14 -15 4 -8 12 -15 20 -15 8 0 14 -5 14 -10 0 -16 -31 -24
-40 -10 -5 8 -9 9 -14 1 -4 -6 -2 -11 3 -11 23 0 10 -16 -22 -28 -25 -9 -43
-9 -84 2 -28 8 -56 17 -61 20 -6 3 -39 8 -74 11 -35 3 -73 6 -85 8 -12 1 -23
-2 -24 -8 -2 -5 21 -14 50 -18 39 -7 55 -14 58 -27 4 -14 23 -23 70 -34 67
-15 100 -34 76 -43 -7 -3 -13 -13 -13 -24 0 -20 -24 -26 -35 -9 -3 6 -15 10
-26 10 -11 0 -17 -5 -14 -10 10 -16 -21 -23 -45 -10 -24 13 -63 4 -57 -13 2
-7 17 -11 33 -10 15 1 36 -5 45 -13 9 -8 23 -14 31 -13 34 4 41 -2 14 -16 -15
-8 -32 -13 -36 -10 -5 3 -11 1 -15 -5 -4 -6 -13 -5 -25 2 -14 9 -22 10 -31 1
-8 -8 -18 -7 -37 3 -39 20 -42 19 -39 -33 2 -46 3 -48 35 -51 35 -4 42 10 17
35 -9 8 -14 18 -11 20 3 3 12 -2 21 -11 21 -21 32 -20 44 2 6 9 11 11 11 5 0
-18 27 -16 37 2 5 8 47 27 93 42 77 25 85 31 88 56 3 27 32 40 32 13 0 -17 75
-86 93 -86 8 0 22 17 33 39 l18 38 13 -35 c10 -30 10 -39 -2 -52 -22 -24 -19
-30 14 -30 16 0 34 -7 41 -15 7 -8 16 -12 21 -9 5 3 17 0 27 -5 16 -8 21 -6
30 14 10 22 9 25 -8 25 -11 0 -20 5 -20 10 0 6 9 10 19 10 11 0 33 11 49 25
20 17 33 22 37 15 4 -6 13 -9 21 -6 21 8 27 -12 6 -23 -14 -8 -21 -25 -25 -71
-3 -36 -12 -69 -22 -80 -15 -16 -15 -18 0 -24 22 -8 38 3 31 21 -7 18 14 83
27 83 4 0 17 -5 28 -10 17 -10 18 -13 4 -26 -26 -26 -17 -42 26 -49 22 -4 45
-15 51 -25 6 -10 18 -16 25 -13 14 5 18 45 6 57 -12 12 -15 39 -15 141 0 102
7 150 24 172 12 15 4 43 -12 43 -6 0 -15 -11 -20 -25 -5 -14 -17 -25 -28 -25
-10 0 -25 -11 -32 -25 -16 -30 -46 -41 -65 -25 -11 9 -14 27 -11 62 3 40 -1
53 -17 69 l-21 19 22 0 c16 0 23 -8 28 -35 3 -19 10 -36 15 -36 21 -4 29 -4
27 1 -1 3 4 15 11 28 12 23 66 32 73 12 2 -5 14 -7 27 -3 21 5 23 10 18 49 -3
30 0 47 12 60 13 15 12 15 -7 -1 -12 -10 -21 -26 -20 -34 4 -21 -22 -52 -36
-43 -10 6 -23 8 -88 11 -25 1 -27 4 -26 42 0 45 -17 73 -31 50 -7 -10 -13 -11
-30 -2 -28 15 -39 7 -34 -24 4 -20 0 -27 -22 -35 -15 -6 -31 -8 -36 -4 -5 3
-9 41 -9 85 0 61 -3 79 -12 73 -10 -6 -10 -4 0 7 19 21 14 30 -13 23 -18 -4
-32 -1 -47 12 -21 19 -21 19 -15 0z m59 -76 c10 0 18 -4 18 -10 0 -5 -5 -10
-11 -10 -7 0 -17 -8 -24 -17 -11 -15 -13 -15 -24 4 -13 26 -4 60 12 44 6 -6
19 -11 29 -11z m-2 -175 c0 -28 29 -42 36 -17 9 30 20 46 34 50 10 4 11 -5 6
-38 -5 -32 -3 -41 6 -38 7 3 14 15 16 27 2 12 9 20 15 18 14 -4 16 -66 3 -84
-5 -8 -5 -18 0 -25 5 -7 9 -26 9 -43 0 -24 -4 -29 -19 -27 -10 2 -25 1 -33 -2
-13 -5 -13 -9 -2 -23 13 -15 12 -15 -8 -5 -14 8 -24 9 -28 2 -9 -15 -42 -12
-59 6 -9 8 -13 20 -10 26 10 17 15 70 8 92 -6 18 -7 18 -16 2 -10 -18 -16 -39
-17 -63 -1 -7 -6 -13 -11 -13 -6 0 -8 12 -6 26 3 15 -1 36 -9 48 -8 11 -15 26
-15 33 0 18 28 5 33 -15 3 -10 5 5 6 31 0 27 6 57 12 68 10 20 11 20 30 3 10
-9 19 -27 19 -39z m-130 -31 c0 -8 -5 -12 -10 -9 -6 4 -8 11 -5 16 9 14 15 11
15 -7z m-269 -29 c-1 -15 -24 -12 -29 3 -3 9 2 13 12 10 10 -1 17 -7 17 -13z
m184 -63 c-2 -3 -11 1 -20 8 -12 10 -13 16 -3 27 10 13 13 11 20 -8 5 -12 6
-24 3 -27z m56 4 c-7 -8 -9 -25 -5 -40 4 -16 2 -26 -5 -26 -6 0 -11 8 -11 18
0 10 -5 23 -12 30 -9 9 -7 16 7 32 22 24 46 11 26 -14z m442 -141 c-1 -60 2
-105 8 -105 5 0 9 -5 9 -10 0 -6 -8 -5 -20 2 -11 7 -18 19 -15 25 2 7 -2 13
-9 13 -41 0 -64 121 -28 152 9 9 26 18 37 21 11 2 20 5 20 6 0 0 -1 -46 -2
-104z m-829 -30 c3 -8 1 -15 -4 -15 -6 0 -10 7 -10 15 0 8 2 15 4 15 2 0 6 -7
10 -15z m570 0 c-4 -8 -8 -15 -10 -15 -2 0 -4 7 -4 15 0 8 4 15 10 15 5 0 7
-7 4 -15z"/>
<path d="M1935 3481 c-3 -5 -1 -12 5 -16 5 -3 10 1 10 9 0 18 -6 21 -15 7z"/>
<path d="M2043 3407 c-12 -26 -18 -77 -9 -77 2 0 17 7 32 15 18 9 23 15 12 15
-12 0 -18 10 -20 37 l-3 38 -12 -28z"/>
<path d="M1070 3725 c7 -8 9 -22 6 -31 -4 -11 1 -18 14 -21 25 -7 25 -15 0
-38 -23 -21 -25 -34 -7 -59 12 -16 14 -16 40 4 29 23 37 46 12 36 -11 -4 -15
2 -15 23 0 16 7 31 15 35 23 9 18 27 -7 24 -13 -2 -24 2 -25 7 -1 6 9 9 22 7
36 -5 30 14 -6 22 -53 10 -63 8 -49 -9z"/>
<path d="M1553 3709 c-19 -19 -16 -36 8 -42 11 -3 23 -15 26 -26 5 -20 6 -20
19 -4 16 22 18 43 3 43 -6 0 -18 9 -27 21 -14 16 -19 18 -29 8z"/>
<path d="M2088 3694 c13 -9 21 -21 19 -27 -6 -17 11 -47 27 -47 8 0 16 8 19
18 2 9 8 26 13 36 6 17 4 18 -20 12 -19 -5 -28 -2 -32 9 -4 8 -16 15 -27 15
-21 0 -21 0 1 -16z"/>
<path d="M2441 3687 c-13 -21 -12 -21 5 -5 10 10 16 20 13 22 -3 3 -11 -5 -18
-17z"/>
<path d="M2240 3659 c0 -7 7 -17 16 -23 8 -6 16 -20 18 -31 2 -12 12 -21 24
-23 19 -3 22 1 22 32 0 29 -4 36 -19 36 -11 0 -23 5 -26 10 -8 14 -35 13 -35
-1z"/>
<path d="M2065 3651 c-6 -11 9 -23 19 -14 9 9 7 23 -3 23 -6 0 -12 -4 -16 -9z"/>
<path d="M1460 3645 c0 -10 26 -61 37 -73 7 -7 13 -20 13 -28 0 -8 4 -13 10
-9 5 3 7 12 4 20 -7 16 11 37 39 48 14 5 16 11 9 24 -7 11 -26 18 -61 20 -28
1 -51 1 -51 -2z"/>
<path d="M1396 3584 c-3 -9 -1 -25 6 -37 6 -12 11 -24 10 -27 -1 -3 3 -5 10
-5 6 0 13 6 16 13 2 6 -1 12 -8 12 -6 0 -8 5 -4 11 5 8 9 8 14 -1 4 -7 15 -10
23 -8 14 2 15 7 4 27 -14 28 -62 38 -71 15z"/>
<path d="M3277 3513 c-3 -21 -5 -53 -4 -72 2 -29 7 -36 31 -42 43 -12 80 9 84
46 3 25 2 27 -12 16 -14 -12 -16 -10 -16 17 0 24 4 30 15 26 8 -4 15 -1 15 5
0 6 -7 11 -15 11 -8 0 -14 6 -12 13 1 8 -13 13 -40 15 -41 3 -41 3 -46 -35z"/>
<path d="M1557 3532 c-8 -11 3 -24 35 -45 36 -22 48 -22 48 3 0 11 -6 20 -14
20 -8 0 -16 4 -18 9 -5 12 -45 23 -51 13z"/>
<path d="M3960 3480 c0 -5 7 -10 16 -10 8 0 12 5 9 10 -3 6 -10 10 -16 10 -5
0 -9 -4 -9 -10z"/>
<path d="M1695 3469 c-12 -19 5 -23 22 -6 16 16 16 17 1 17 -9 0 -20 -5 -23
-11z"/>
<path d="M3660 3429 c-21 -22 -40 -50 -43 -62 -6 -21 -5 -21 14 3 50 62 50 62
77 56 63 -15 119 -16 130 -3 10 11 4 16 -26 25 -20 6 -54 13 -75 16 -35 5 -42
1 -77 -35z"/>
<path d="M3981 3451 c-10 -6 -10 -10 -1 -16 13 -8 24 -1 19 14 -3 6 -10 7 -18
2z"/>
<path d="M3700 3373 c0 -17 16 -31 27 -25 9 6 6 11 -7 20 -11 7 -20 9 -20 5z"/>
<path d="M385 3359 c-10 -15 3 -25 16 -12 7 7 7 13 1 17 -6 3 -14 1 -17 -5z"/>
<path d="M3785 3360 c-7 -12 19 -24 37 -17 8 3 5 6 -7 7 l-20 1 20 9 c19 8 19
9 -2 9 -12 1 -25 -4 -28 -9z"/>
<path d="M3591 3308 c0 -10 -6 -18 -12 -18 -5 0 -7 -5 -3 -11 10 -16 27 5 21
27 -4 17 -5 17 -6 2z"/>
<path d="M3703 3281 c4 -16 2 -43 -3 -59 -6 -24 -4 -34 10 -47 12 -10 24 -14
32 -9 7 5 31 9 53 11 22 1 49 2 60 3 35 2 46 38 19 65 -13 12 -19 13 -30 4 -8
-6 -13 -19 -12 -28 2 -10 -4 -16 -17 -16 -16 0 -19 6 -17 28 4 31 -9 35 -29
10 -11 -13 -11 -17 -1 -20 22 -8 3 -20 -23 -15 -31 5 -33 32 -3 40 l22 5 -21
8 c-15 6 -20 14 -16 28 4 15 1 21 -12 21 -14 0 -16 -6 -12 -29z"/>
<path d="M3320 3286 c-27 -15 -68 -76 -51 -76 5 0 13 9 16 20 4 13 16 20 33
21 15 0 37 2 49 5 12 2 28 -3 36 -10 11 -12 15 -11 25 5 16 25 16 26 -15 32
-16 3 -37 8 -48 11 -11 3 -31 -1 -45 -8z"/>
<path d="M3755 3280 c-3 -5 -1 -10 4 -10 6 0 11 5 11 10 0 6 -2 10 -4 10 -3 0
-8 -4 -11 -10z"/>
<path d="M3515 3268 c1 -7 8 -28 15 -47 11 -27 14 -31 22 -17 5 9 16 16 23 16
8 0 15 5 15 11 0 6 -7 9 -15 5 -8 -3 -15 -1 -15 4 0 11 -29 40 -40 40 -4 0 -7
-6 -5 -12z"/>
<path d="M1706 3230 c12 -5 25 -14 30 -21 5 -8 3 -10 -6 -4 -24 15 -65 14 -81
-1 -10 -9 -45 -21 -78 -27 -37 -7 -61 -17 -61 -24 0 -7 -4 -13 -10 -13 -5 0
-17 -14 -25 -30 -9 -17 -20 -28 -25 -25 -11 7 -24 -38 -17 -57 3 -7 6 -3 6 9
1 12 5 24 10 27 11 7 22 -19 16 -36 -2 -7 -9 -32 -15 -55 -10 -39 -13 -42 -41
-38 -29 4 -30 2 -24 -25 3 -16 2 -31 -4 -35 -6 -3 -11 -1 -11 6 0 7 -3 9 -7 6
-9 -10 28 -42 49 -42 10 0 23 6 30 13 6 6 18 12 26 12 7 0 22 22 33 48 14 33
30 53 54 66 31 17 38 17 112 3 76 -15 117 -17 128 -5 4 3 20 1 36 -6 26 -9 33
-8 43 7 19 25 32 22 80 -23 43 -40 50 -57 62 -155 13 -111 24 -166 34 -185 8
-13 9 -13 13 0 2 8 12 38 21 65 22 63 24 100 9 148 -9 29 -9 37 0 37 8 0 8 3
-2 9 -7 5 -16 29 -18 55 -4 30 -10 46 -19 46 -17 0 -18 17 -1 23 6 3 -3 10
-20 17 -31 11 -45 30 -23 30 6 0 5 10 -2 25 -12 26 -31 36 -22 11 4 -11 0 -13
-15 -9 -12 3 -21 9 -21 14 0 5 -13 15 -30 24 -16 9 -30 23 -30 32 0 14 -2 14
-15 -3 -14 -18 -16 -18 -46 16 -17 19 -40 45 -51 58 -14 15 -31 22 -57 21 -30
0 -33 -2 -15 -9z m-96 -81 c-7 -11 -14 -18 -17 -15 -3 3 0 12 7 21 18 21 23
19 10 -6z m100 1 c0 -5 -2 -10 -4 -10 -3 0 -8 5 -11 10 -3 6 -1 10 4 10 6 0
11 -4 11 -10z"/>
<path d="M3326 3188 c2 -45 5 -52 23 -53 16 -1 21 4 21 22 0 13 -3 22 -7 22
-21 -3 -25 2 -10 14 13 9 14 16 6 27 -9 13 -10 12 -5 -3 3 -11 2 -16 -4 -12
-6 3 -10 13 -10 21 0 8 -3 14 -8 14 -4 0 -7 -23 -6 -52z"/>
<path d="M330 3212 c0 -7 -5 -12 -10 -12 -10 0 -82 -74 -88 -91 -2 -5 3 -9 11
-9 9 0 18 9 22 19 3 11 14 22 23 25 18 6 56 65 47 74 -3 3 -5 0 -5 -6z"/>
<path d="M1605 3200 c-3 -6 1 -7 9 -4 18 7 21 14 7 14 -6 0 -13 -4 -16 -10z"/>
<path d="M3568 3156 c-10 -7 -15 -15 -12 -18 7 -8 44 3 44 13 0 15 -15 17 -32
5z"/>
<path d="M2022 3125 c-20 -10 -21 -13 -7 -19 21 -8 65 -8 65 0 0 6 -27 34 -32
33 -2 -1 -13 -7 -26 -14z"/>
<path d="M3214 3105 c4 -34 12 -41 19 -16 3 11 -1 25 -8 31 -11 9 -13 6 -11
-15z"/>
<path d="M940 3090 c0 -16 5 -30 10 -30 6 0 10 6 10 14 0 8 3 21 6 30 4 11 1
16 -10 16 -11 0 -16 -9 -16 -30z"/>
<path d="M3050 3036 c0 -14 4 -27 9 -30 10 -7 20 23 14 42 -8 21 -23 13 -23
-12z"/>
<path d="M3340 3045 c0 -19 11 -19 36 0 18 14 18 14 -8 15 -18 0 -28 -5 -28
-15z"/>
<path d="M2951 3026 c0 -6 4 -20 9 -31 7 -16 9 -17 9 -3 1 9 3 23 6 31 4 8 0
14 -10 14 -8 0 -15 -5 -14 -11z"/>
<path d="M326 2991 c-4 -7 1 -11 12 -11 11 0 22 -7 26 -15 3 -8 12 -12 21 -9
18 7 20 34 3 34 -7 0 -23 3 -34 6 -12 3 -25 1 -28 -5z"/>
<path d="M2290 2985 c0 -9 5 -15 11 -13 6 2 11 8 11 13 0 5 -5 11 -11 13 -6 2
-11 -4 -11 -13z"/>
<path d="M3055 2971 c-7 -12 59 -26 74 -16 6 3 11 10 11 16 0 12 -77 12 -85 0z"/>
<path d="M2131 2944 c0 -11 3 -14 6 -6 3 7 2 16 -1 19 -3 4 -6 -2 -5 -13z"/>
<path d="M2286 2933 c4 -16 11 -36 16 -45 6 -13 5 -18 -7 -18 -8 0 -15 -4 -15
-10 0 -5 9 -10 20 -10 18 0 20 7 20 55 0 49 -2 55 -20 55 -17 0 -19 -4 -14
-27z"/>
<path d="M1760 2897 c0 -32 3 -38 12 -29 7 7 25 12 40 12 15 0 28 5 28 10 0 6
-6 10 -14 10 -8 0 -16 6 -19 14 -3 7 -15 16 -26 19 -19 5 -21 1 -21 -36z"/>
<path d="M1703 2905 c-9 -25 2 -27 28 -6 l24 20 -23 1 c-12 0 -25 -7 -29 -15z"/>
<path d="M357 2893 c-4 -3 -7 -11 -7 -17 0 -6 5 -5 12 2 6 6 9 14 7 17 -3 3
-9 2 -12 -2z"/>
<path d="M120 2835 c-15 -18 -6 -45 15 -45 9 0 15 9 15 24 0 31 -14 40 -30 21z"/>
<path d="M3443 2823 c-12 -35 -6 -63 13 -63 16 0 20 56 5 78 -6 10 -11 7 -18
-15z"/>
<path d="M2273 2829 c-26 -9 -39 -45 -23 -63 15 -19 50 -8 50 15 0 11 5 19 10
19 14 0 12 27 -2 33 -7 2 -23 1 -35 -4z"/>
<path d="M1388 2801 c-27 -25 -27 -28 -10 -44 14 -15 15 -19 2 -27 -12 -7 -12
-13 -1 -33 7 -13 20 -24 30 -23 12 1 16 -8 17 -39 1 -59 3 -61 19 -38 8 12 14
36 13 55 -1 18 1 50 5 71 8 37 1 44 -36 38 -5 -1 -6 8 -2 19 4 11 2 20 -4 20
-6 0 -8 7 -5 15 8 20 4 18 -28 -14z"/>
<path d="M1737 2799 c-3 -13 -14 -19 -31 -19 -23 0 -31 -9 -27 -32 0 -4 -18
-11 -40 -14 -46 -8 -99 -54 -99 -86 0 -16 3 -17 21 -8 11 7 28 9 36 6 14 -6
14 -8 0 -24 -15 -17 -14 -18 16 -20 34 -3 87 15 87 29 0 5 5 9 11 9 6 0 9 -9
6 -20 -3 -11 -1 -20 4 -20 9 0 14 28 10 67 -4 51 38 19 79 -60 8 -16 17 -24
23 -18 5 5 4 18 -4 32 -11 21 -10 22 2 12 23 -19 91 -26 124 -13 l30 12 -30
14 -30 13 33 1 c25 0 32 4 32 19 0 11 -7 26 -15 34 -11 12 -12 16 -2 20 6 2
-8 7 -33 11 -98 15 -102 17 -89 32 9 11 7 14 -10 14 -11 0 -21 4 -21 8 0 4 -8
8 -17 9 -10 0 -28 3 -40 6 -15 4 -22 0 -26 -14z"/>
<path d="M3330 2780 c0 -5 14 -10 31 -10 17 0 28 4 24 10 -3 6 -17 10 -31 10
-13 0 -24 -4 -24 -10z"/>
<path d="M2285 2730 c-3 -5 -1 -10 4 -10 6 0 11 5 11 10 0 6 -2 10 -4 10 -3 0
-8 -4 -11 -10z"/>
<path d="M2106 2701 c-4 -5 -2 -12 3 -15 5 -4 12 -2 15 3 4 5 2 12 -3 15 -5 4
-12 2 -15 -3z"/>
<path d="M275 2640 c-3 -5 1 -10 10 -10 9 0 13 5 10 10 -3 6 -8 10 -10 10 -2
0 -7 -4 -10 -10z"/>
<path d="M365 2640 c-3 -5 1 -10 9 -10 9 0 16 5 16 10 0 6 -4 10 -9 10 -6 0
-13 -4 -16 -10z"/>
<path d="M2861 2600 c-10 -5 -12 -42 -11 -136 2 -165 -6 -219 -36 -243 -23
-18 -23 -19 -4 -24 12 -3 20 -14 20 -25 0 -12 9 -23 20 -27 29 -9 25 -35 -5
-35 -15 0 -25 -6 -25 -14 0 -17 24 -28 45 -20 17 7 21 -11 5 -21 -5 -3 -10
-17 -10 -30 0 -19 6 -25 33 -28 28 -3 29 -5 10 -11 -15 -6 -22 -18 -25 -43 -3
-29 0 -38 24 -54 26 -19 28 -19 30 -2 0 10 0 25 -1 33 -1 8 4 47 10 86 8 51 8
77 0 91 -6 13 -11 94 -12 204 -2 241 -8 290 -35 299 -11 5 -26 5 -33 0z"/>
<path d="M1859 2563 c-1 -5 0 -17 0 -29 2 -19 -4 -21 -71 -22 -40 -1 -82 -3
-93 -4 -15 -2 -19 2 -17 16 3 16 -1 18 -34 11 -43 -8 -59 -24 -76 -78 -9 -31
-9 -43 4 -70 18 -38 58 -49 58 -16 0 17 5 19 29 16 22 -4 28 -1 27 11 -1 14 9
16 60 14 33 -2 72 2 87 7 17 7 28 7 32 0 11 -16 -65 -41 -115 -37 -43 3 -46 1
-42 -17 3 -11 11 -24 19 -28 8 -5 11 -16 8 -28 -4 -13 -2 -19 9 -19 21 0 20
-24 0 -41 -30 -25 -121 -9 -146 26 -5 7 -8 7 -8 0 0 -5 16 -25 35 -44 35 -34
43 -51 25 -51 -5 0 -10 -7 -10 -15 0 -8 5 -15 10 -15 6 0 10 7 10 15 0 23 8
19 51 -27 43 -48 44 -51 25 -67 -8 -7 -12 -21 -9 -31 7 -25 -11 -26 -36 -1
-11 11 -21 15 -23 10 -6 -19 -95 28 -123 65 -22 29 -26 43 -23 83 1 26 -1 50
-6 53 -6 3 -26 -23 -46 -58 -31 -54 -45 -67 -96 -93 -32 -16 -79 -41 -104 -54
-25 -13 -59 -24 -76 -24 -17 -1 -37 -7 -43 -15 -6 -7 -30 -17 -54 -20 -23 -4
-62 -11 -87 -15 -47 -8 -121 -53 -164 -99 -44 -48 -106 -126 -106 -134 0 -5
-7 -8 -15 -8 -8 0 -15 5 -15 10 0 17 -173 12 -206 -5 -16 -8 -48 -15 -70 -15
-33 0 -41 -4 -40 -16 0 -9 -5 -19 -11 -21 -7 -3 -13 2 -13 10 0 8 -7 20 -15
27 -8 7 -15 24 -15 39 0 14 -4 33 -9 40 -8 12 -12 10 -21 -11 -7 -14 -22 -30
-34 -35 -42 -20 -162 -43 -218 -43 l-58 0 0 -394 0 -393 67 -23 c173 -58 298
-155 391 -305 20 -32 32 -44 35 -35 33 112 43 143 67 190 15 30 32 75 38 100
10 41 44 273 46 312 0 18 6 16 56 -23 36 -28 148 -79 174 -79 17 0 13 -45 -8
-100 -8 -19 -19 -54 -25 -77 -6 -23 -18 -49 -26 -57 -8 -8 -15 -21 -15 -28 0
-8 -7 -23 -15 -34 -12 -16 -16 -17 -24 -4 -12 17 -13 16 -30 -34 -8 -22 -22
-49 -33 -60 -18 -19 -68 -110 -68 -123 0 -3 7 0 16 8 19 16 34 -2 34 -42 0
-32 6 -38 29 -32 13 3 17 11 13 25 -4 15 -2 19 7 14 7 -5 22 3 36 18 22 24 45
34 45 20 0 -6 -35 -58 -55 -81 -5 -7 -16 -20 -24 -29 -13 -15 -15 -15 -26 0
-7 9 -15 16 -17 16 -8 0 -3 -52 7 -74 8 -19 -9 -82 -63 -231 -29 -78 -37 -125
-22 -125 6 0 10 -7 10 -15 0 -13 126 -15 1072 -15 l1071 0 -20 23 c-31 33 -41
96 -42 257 0 25 -5 61 -11 80 -13 43 -47 252 -49 299 -1 19 -7 41 -13 48 -7 9
-7 13 1 13 6 0 11 11 11 24 0 14 4 27 9 30 8 6 21 61 27 126 3 28 -5 47 -35
93 -22 32 -42 71 -46 87 -4 16 -11 32 -16 35 -5 4 -5 14 1 26 6 10 8 19 4 19
-3 0 16 15 42 33 61 40 76 69 69 125 -6 37 -4 42 14 42 36 0 51 -12 51 -40 l0
-28 127 -7 c84 -5 143 -4 176 4 26 6 76 11 110 11 53 0 187 14 253 26 12 2 24
14 27 26 8 28 -3 45 -15 24 -12 -21 -25 -20 -76 4 -22 11 -50 20 -61 20 -10 0
-21 4 -23 9 -1 5 -42 27 -90 49 -77 36 -88 44 -88 66 0 14 -4 26 -10 26 -5 0
-10 -9 -10 -20 0 -24 -4 -25 -35 -4 -14 9 -22 21 -18 27 4 7 0 8 -12 3 -10 -4
-42 1 -71 10 -53 16 -76 40 -50 50 8 3 12 14 9 25 -8 29 24 36 51 10 25 -23
76 -29 76 -8 0 7 -19 18 -42 24 -62 17 -86 37 -72 60 6 10 12 39 12 65 l1 47
-104 -4 c-57 -2 -107 -5 -112 -8 -4 -3 -24 -7 -43 -9 -33 -3 -36 0 -58 47 -45
96 -106 137 -252 169 -139 31 -251 70 -277 96 -14 14 -39 44 -55 68 -42 61
-52 55 -44 -27 9 -84 -4 -118 -66 -179 -43 -41 -45 -42 -61 -24 -13 14 -18 40
-20 99 l-2 80 42 41 c22 22 44 50 48 61 3 12 10 21 15 21 5 0 14 17 21 38 6
20 15 42 19 47 4 6 10 19 14 29 5 15 4 17 -7 8 -20 -17 -28 -4 -15 23 25 55
-30 155 -86 155 -14 0 -26 -3 -27 -7z m54 -194 c-8 -47 -18 -75 -30 -82 -7 -5
-11 -11 -9 -15 5 -9 -41 -8 -50 1 -3 3 3 12 15 19 25 16 27 28 4 28 -15 0 -15
2 3 20 10 10 25 26 32 35 16 18 38 15 35 -6z m33 -40 c-8 -19 -15 -26 -15 -17
-1 23 20 75 26 62 2 -7 -3 -27 -11 -45z m814 -554 c0 -8 -4 -15 -9 -15 -13 0
-22 16 -14 24 11 11 23 6 23 -9z m-73 -1 c-3 -3 -12 -4 -19 -1 -8 3 -5 6 6 6
11 1 17 -2 13 -5z m-891 -170 c-5 -13 -10 -14 -18 -6 -6 6 -8 18 -4 28 5 13
10 14 18 6 6 -6 8 -18 4 -28z m-1131 -214 c0 -19 -8 -26 -34 -33 -47 -12 -61
5 -30 37 30 31 64 29 64 -4z m-28 -86 c-3 -3 -12 -4 -19 -1 -8 3 -5 6 6 6 11
1 17 -2 13 -5z m1831 -244 c26 -59 63 -206 67 -270 5 -93 16 -186 25 -230 14
-61 18 -131 8 -128 -4 2 -44 64 -88 138 -77 128 -81 137 -76 180 4 25 10 115
16 200 5 85 9 156 10 158 0 1 3 2 8 2 4 0 17 -23 30 -50z m-1471 -12 c-3 -7
-5 -2 -5 12 0 14 2 19 5 13 2 -7 2 -19 0 -25z m38 22 c3 -5 1 -10 -4 -10 -6 0
-11 5 -11 10 0 6 2 10 4 10 3 0 8 -4 11 -10z m10 -450 c-3 -5 -25 -10 -48 -10
-49 0 -35 14 18 18 22 1 34 -2 30 -8z m143 -365 c2 -15 -2 -31 -9 -36 -16 -10
-29 -2 -29 17 0 8 5 12 10 9 6 -3 10 -2 10 3 0 6 -8 13 -17 16 -15 6 -15 8 -3
16 23 14 35 6 38 -25z m-183 15 c3 -5 -1 -10 -9 -10 -9 0 -16 5 -16 10 0 6 4
10 9 10 6 0 13 -4 16 -10z m100 0 c3 -5 1 -10 -4 -10 -6 0 -11 5 -11 10 0 6 2
10 4 10 3 0 8 -4 11 -10z m-235 -90 c0 -5 -4 -10 -10 -10 -5 0 -10 5 -10 10 0
6 5 10 10 10 6 0 10 -4 10 -10z m290 -100 c0 -5 -4 -10 -10 -10 -5 0 -10 5
-10 10 0 6 5 10 10 10 6 0 10 -4 10 -10z"/>
<path d="M1638 2553 c7 -3 16 -2 19 1 4 3 -2 6 -13 5 -11 0 -14 -3 -6 -6z"/>
<path d="M3720 2500 c0 -11 5 -20 10 -20 6 0 10 9 10 20 0 11 -4 20 -10 20 -5
0 -10 -9 -10 -20z"/>
<path d="M3410 2464 c0 -8 5 -12 10 -9 6 3 10 10 10 16 0 5 -4 9 -10 9 -5 0
-10 -7 -10 -16z"/>
<path d="M767 2456 c-4 -10 -5 -21 -2 -24 9 -9 17 6 13 25 -3 17 -4 17 -11 -1z"/>
<path d="M2215 2420 c-3 -5 -2 -10 4 -10 5 0 13 5 16 10 3 6 2 10 -4 10 -5 0
-13 -4 -16 -10z"/>
<path d="M2210 2380 c0 -5 7 -10 15 -10 8 0 15 5 15 10 0 6 -7 10 -15 10 -8 0
-15 -4 -15 -10z"/>
<path d="M3650 2341 c0 -10 30 -24 37 -17 3 3 2 9 -2 15 -8 13 -35 15 -35 2z"/>
<path d="M2163 2305 c-9 -25 4 -29 17 -6 7 15 7 21 0 21 -6 0 -13 -7 -17 -15z"/>
<path d="M1380 2299 c0 -5 5 -7 10 -4 6 3 10 8 10 11 0 2 -4 4 -10 4 -5 0 -10
-5 -10 -11z"/>
<path d="M2225 2300 c-3 -5 -1 -10 4 -10 6 0 11 5 11 10 0 6 -2 10 -4 10 -3 0
-8 -4 -11 -10z"/>
<path d="M940 2255 c0 -8 5 -15 10 -15 6 0 10 7 10 15 0 8 -4 15 -10 15 -5 0
-10 -7 -10 -15z"/>
<path d="M1387 2263 c-19 -18 -6 -40 24 -41 l31 -1 -23 25 c-26 27 -24 26 -32
17z"/>
<path d="M2725 2121 c-32 -5 -41 -11 -43 -28 -2 -13 0 -23 5 -23 4 0 18 -3 30
-6 18 -5 25 -1 33 20 5 14 16 26 24 26 8 0 18 5 21 10 7 11 -6 11 -70 1z"/>
<path d="M365 1770 c-8 -12 52 -12 80 0 15 6 8 9 -27 9 -26 1 -50 -3 -53 -9z"/>
<path d="M3068 1652 c-31 -4 -37 -19 -12 -29 8 -3 23 2 32 10 19 20 15 23 -20
19z"/>
<path d="M3096 1623 c-14 -14 -5 -51 14 -56 13 -3 20 0 20 9 0 9 11 14 31 14
25 0 28 2 17 13 -15 15 -73 29 -82 20z"/>
<path d="M3272 1599 c2 -6 8 -10 13 -10 5 0 11 4 13 10 2 6 -4 11 -13 11 -9 0
-15 -5 -13 -11z"/>
<path d="M3200 1590 c0 -11 40 -34 47 -26 3 3 3 12 0 21 -7 16 -47 21 -47 5z"/>
<path d="M3275 1530 c-3 -5 -2 -10 4 -10 5 0 13 5 16 10 3 6 2 10 -4 10 -5 0
-13 -4 -16 -10z"/>
<path d="M3330 1530 c0 -6 7 -10 15 -10 8 0 15 2 15 4 0 2 -7 6 -15 10 -8 3
-15 1 -15 -4z"/>
<path d="M3450 1531 c0 -5 -14 -9 -30 -9 -17 1 -33 -2 -37 -5 -3 -4 2 -7 12
-7 10 0 26 -6 34 -14 21 -18 64 -3 59 21 -3 19 -38 32 -38 14z"/>
<path d="M3525 1460 c4 -6 11 -8 16 -5 14 9 11 15 -7 15 -8 0 -12 -5 -9 -10z"/>
<path d="M3637 1452 c-15 -14 -20 -15 -38 -4 -12 8 -24 10 -27 7 -4 -4 1 -11
11 -16 9 -6 17 -20 17 -32 0 -18 2 -19 10 -7 9 13 12 13 21 -3 7 -12 17 -16
30 -12 13 4 19 2 19 -9 0 -14 3 -14 20 1 11 10 20 25 20 34 0 12 -6 16 -20 12
-13 -4 -20 0 -20 10 0 27 -25 38 -43 19z"/>
<path d="M3752 1446 c1 -10 8 -17 13 -17 15 1 12 24 -3 29 -9 3 -13 -2 -10
-12z"/>
<path d="M3767 1397 c-17 -12 -17 -14 -4 -26 21 -17 102 -2 102 19 0 20 -74
25 -98 7z"/>
<path d="M3960 1115 c-7 -8 -19 -15 -26 -15 -17 0 -18 -12 -2 -28 9 -9 9 -12
0 -12 -7 0 -12 5 -12 10 0 6 -7 10 -16 10 -9 0 -18 9 -21 20 -4 14 -10 17 -22
11 -9 -5 -22 -6 -29 -4 -7 3 -18 1 -25 -5 -7 -5 -32 -10 -56 -11 -24 0 -51 -7
-59 -13 -8 -7 -38 -14 -66 -16 -28 -1 -72 -3 -98 -5 -25 -1 -50 -6 -54 -10 -4
-4 -14 -7 -23 -7 -14 0 -14 2 -1 10 8 5 11 10 5 10 -5 -1 -19 -7 -29 -15 -17
-13 -18 -15 -3 -15 19 0 23 -15 7 -25 -15 -9 7 -35 29 -35 11 -1 8 -5 -9 -14
-15 -9 -31 -11 -41 -6 -10 6 -20 5 -27 -2 -7 -7 -15 -8 -19 -4 -4 4 3 16 17
27 23 19 23 20 3 14 -16 -4 -23 -1 -28 15 -10 32 -25 23 -25 -15 0 -19 -4 -35
-10 -35 -5 0 -10 5 -10 10 0 6 -6 10 -14 10 -8 0 -17 6 -19 13 -3 6 -6 -1 -6
-18 -1 -27 -4 -30 -36 -31 -19 0 -35 3 -35 8 0 5 4 7 9 3 5 -3 12 -1 15 4 3 5
-10 12 -30 15 -24 5 -38 14 -44 32 -11 27 -20 30 -38 12 -10 -10 -15 -10 -22
2 -8 13 -13 13 -39 -3 -16 -9 -49 -17 -75 -17 -31 0 -45 -4 -43 -12 1 -8 -12
-14 -35 -16 -20 -2 -42 -10 -48 -18 -7 -8 -24 -14 -37 -14 -22 0 -24 -3 -18
-22 4 -13 9 -46 11 -74 2 -28 9 -73 14 -100 6 -27 14 -203 17 -392 l6 -342 43
0 c30 0 44 4 44 13 0 21 37 51 45 37 3 -6 -4 -19 -17 -30 -23 -19 -22 -19 220
-20 133 0 242 2 242 4 0 2 -34 29 -75 60 -79 60 -96 66 -44 18 18 -16 29 -34
25 -40 -4 -6 -28 -14 -54 -17 -26 -4 -56 -9 -66 -12 -15 -4 -18 -2 -12 12 6
16 5 16 -18 1 -43 -27 -89 -18 -63 13 19 22 28 51 17 51 -6 0 -10 -4 -10 -10
0 -5 -7 -10 -16 -10 -8 0 -13 4 -9 9 3 6 -2 14 -11 19 -14 8 -13 13 10 47 14
21 26 42 26 47 0 5 9 6 20 3 11 -3 20 -5 20 -3 0 2 -36 30 -80 63 -74 56 -98
85 -67 85 6 0 21 -7 31 -15 25 -19 37 -19 30 0 -6 15 37 32 54 21 6 -3 12 1
16 9 3 8 16 15 29 15 13 0 27 3 30 7 11 11 56 12 63 2 4 -6 10 -7 17 0 7 5 42
19 80 31 39 13 67 27 67 35 0 8 5 17 12 21 7 5 9 2 6 -8 -5 -12 4 -17 45 -21
71 -9 80 -22 79 -104 -2 -87 -5 -103 -20 -130 -7 -13 -10 -34 -6 -49 6 -23 4
-26 -10 -21 -12 5 -16 1 -16 -18 0 -17 -6 -25 -18 -25 -20 0 -64 -29 -46 -30
7 0 26 -13 44 -30 l32 -30 59 20 c32 11 66 20 76 20 15 0 15 -2 -2 -14 -11 -8
-23 -12 -27 -10 -4 2 -9 0 -13 -6 -4 -7 58 -10 184 -10 l191 0 0 61 c0 54 -2
60 -17 54 -10 -4 -47 -15 -83 -25 -36 -10 -90 -25 -119 -34 -37 -11 -58 -13
-65 -6 -7 7 -1 10 16 10 15 0 29 4 32 9 4 5 24 12 45 16 28 5 38 11 35 20 -4
11 4 13 35 10 22 -2 43 1 47 6 3 5 9 7 14 4 5 -3 11 -1 15 5 3 5 15 10 26 10
15 0 19 7 19 34 0 34 0 35 -32 25 -18 -5 -45 -9 -60 -9 -22 0 -26 4 -21 17 4
10 11 22 17 26 6 5 0 5 -14 1 -14 -4 -35 -17 -46 -30 -15 -15 -38 -24 -76 -29
-71 -9 -107 -2 -59 11 l34 10 -44 14 c-25 8 -37 15 -28 17 10 2 19 13 22 25 5
18 2 20 -29 15 -32 -5 -34 -4 -34 24 0 34 15 38 25 6 6 -20 7 -20 16 11 8 28
14 32 44 32 21 0 35 5 35 12 0 9 3 9 12 0 17 -17 31 -15 24 4 -5 13 -1 15 18
10 14 -3 41 -15 60 -27 35 -20 35 -21 19 -46 l-17 -25 -21 26 c-21 26 -45 35
-45 16 0 -5 5 -10 10 -10 6 0 10 -11 10 -25 0 -22 3 -24 33 -18 17 3 40 10 49
15 13 6 20 3 28 -12 20 -37 70 -19 70 27 0 17 -16 31 -67 61 -38 22 -79 43
-92 47 -13 4 -47 21 -75 38 -28 17 -80 45 -115 64 -35 19 -77 43 -92 53 -15
11 -30 20 -34 20 -4 0 -21 10 -38 22 -17 12 -45 30 -61 39 -112 60 -132 72
-141 83 -6 7 -21 17 -35 21 -34 10 -277 144 -290 159 -5 7 -11 23 -12 36 -6
47 51 33 162 -40 52 -35 89 -55 320 -180 114 -61 308 -160 314 -160 2 0 7 11
10 25 9 34 29 21 21 -13 -4 -23 0 -30 35 -50 l41 -23 27 29 c15 16 26 35 24
41 -5 14 -3 14 37 0 24 -8 35 -8 46 1 18 15 20 51 4 67 -8 8 -8 13 0 17 7 5
11 85 11 247 0 196 -2 239 -14 239 -7 0 -19 -7 -26 -15z m-340 -80 c0 -8 -4
-15 -9 -15 -13 0 -22 16 -14 24 11 11 23 6 23 -9z m-139 -48 c-8 -8 -11 -7
-11 4 0 20 13 34 18 19 3 -7 -1 -17 -7 -23z m214 24 c3 -5 1 -12 -4 -15 -12
-8 -41 3 -41 15 0 12 37 12 45 0z m-65 -21 c0 -5 -4 -10 -9 -10 -6 0 -13 5
-16 10 -3 6 1 10 9 10 9 0 16 -4 16 -10z m-506 -32 c-4 -13 -7 -26 -6 -30 2
-10 -22 -11 -31 -2 -6 7 35 64 41 58 2 -1 0 -13 -4 -26z m722 -82 c2 -23 -30
-65 -41 -55 -2 3 0 22 6 42 11 42 33 50 35 13z m-256 -26 c0 -5 -2 -10 -4 -10
-3 0 -8 5 -11 10 -3 6 -1 10 4 10 6 0 11 -4 11 -10z m70 -31 c0 -5 -4 -9 -10
-9 -5 0 -10 7 -10 16 0 8 5 12 10 9 6 -3 10 -10 10 -16z m-112 -11 c-3 -7 -12
-14 -21 -16 -12 -2 -15 1 -11 12 7 19 38 22 32 4z m27 2 c3 -5 1 -10 -4 -10
-6 0 -11 5 -11 10 0 6 2 10 4 10 3 0 8 -4 11 -10z m-25 -60 c0 -5 -12 -10 -26
-10 -14 0 -23 4 -19 10 3 6 15 10 26 10 10 0 19 -4 19 -10z m290 -105 c0 -13
-69 -40 -79 -30 -2 3 -2 6 0 8 4 3 72 35 77 36 1 1 2 -6 2 -14z m-566 -17 c-2
-13 -1 -17 2 -10 5 10 9 10 20 1 16 -13 48 -4 39 11 -9 15 8 12 33 -6 25 -17
28 -39 10 -81 -6 -15 -12 -37 -12 -48 -1 -15 -7 -20 -27 -18 -20 1 -25 -3 -25
-20 1 -14 -6 -23 -19 -25 -11 -3 -23 -9 -26 -14 -4 -6 -32 -11 -63 -12 -30 -1
-61 -7 -68 -14 -17 -17 -48 -15 -48 3 0 8 -7 15 -15 15 -21 0 -19 16 6 39 20
19 20 21 5 36 -13 13 -14 20 -5 31 8 10 8 14 0 14 -13 0 -14 10 -2 29 8 12 12
12 25 2 10 -9 16 -9 16 -3 0 20 40 35 56 22 7 -7 12 -16 9 -20 -3 -5 -1 -11 5
-15 16 -10 12 27 -5 45 -14 16 -14 18 -1 23 9 4 24 -2 35 -14 17 -18 19 -18
25 -3 3 9 2 22 -4 29 -12 14 -3 25 21 25 12 0 16 -6 13 -22z m654 1 c-2 -6 -8
-10 -13 -10 -5 0 -11 4 -13 10 -2 6 4 11 13 11 9 0 15 -5 13 -11z m-58 -15 c0
-8 -5 -12 -10 -9 -6 4 -8 11 -5 16 9 14 15 11 15 -7z m45 -24 c-3 -5 -13 -10
-21 -10 -8 0 -14 5 -14 10 0 6 9 10 21 10 11 0 17 -4 14 -10z m-45 -26 c0 -18
-36 -18 -43 0 -6 16 10 26 31 18 6 -2 12 -10 12 -18z m-812 -4 c-9 -14 -14
-16 -20 -7 -12 18 -10 23 12 24 17 1 18 -1 8 -17z m502 -41 l42 -24 -53 -12
c-59 -14 -99 -5 -99 22 0 10 -5 13 -12 9 -6 -4 -9 -3 -6 2 3 5 8 16 11 26 7
21 56 11 117 -23z m90 -81 c0 -17 3 -19 9 -10 7 11 18 10 60 -8 28 -13 51 -27
51 -32 0 -5 -4 -7 -9 -4 -4 3 -17 -1 -27 -9 -27 -20 -33 -18 -26 7 4 17 2 20
-11 15 -9 -3 -18 -1 -21 6 -3 7 -3 2 0 -10 4 -16 1 -23 -9 -23 -8 0 -18 11
-21 24 -3 14 -15 28 -27 31 -19 7 -20 7 -2 21 26 19 33 17 33 -8z m-577 -53
c0 -6 -7 -11 -16 -13 -12 -3 -15 1 -11 13 7 17 25 17 27 0z m27 -165 c0 -5 -4
-10 -10 -10 -5 0 -10 -7 -10 -15 0 -8 -4 -15 -10 -15 -13 0 -13 6 2 30 14 21
28 26 28 10z m-146 -127 c-26 -19 -36 -16 -24 7 6 12 16 17 27 13 14 -6 14 -8
-3 -20z m734 -22 c3 -8 -1 -12 -9 -9 -7 2 -15 10 -17 17 -3 8 1 12 9 9 7 -2
15 -10 17 -17z m-648 -21 c0 -5 -4 -10 -10 -10 -5 0 -10 5 -10 10 0 6 5 10 10
10 6 0 10 -4 10 -10z"/>
<path d="M3284 533 c3 -20 20 -27 42 -19 14 5 14 8 0 21 -20 20 -45 19 -42 -2z"/>
<path d="M3106 485 c4 -8 10 -12 15 -9 14 8 10 24 -6 24 -9 0 -12 -6 -9 -15z"/>
<path d="M3380 1020 c0 -5 5 -10 10 -10 6 0 10 5 10 10 0 6 -4 10 -10 10 -5 0
-10 -4 -10 -10z"/>
<path d="M3285 1011 c-7 -12 12 -24 25 -16 11 7 4 25 -10 25 -5 0 -11 -4 -15
-9z"/>
<path d="M3960 505 c0 -9 -12 -18 -30 -21 -16 -4 -30 -10 -30 -13 0 -7 81 -51
94 -51 3 0 6 23 6 50 0 43 -3 50 -20 50 -11 0 -20 -7 -20 -15z"/>
<path d="M3830 330 c0 -13 18 -22 24 -11 3 5 -1 11 -9 15 -8 3 -15 1 -15 -4z"/>
<path d="M3728 308 c9 -9 15 -9 24 0 9 9 7 12 -12 12 -19 0 -21 -3 -12 -12z"/>
<path d="M3090 300 c0 -7 24 -20 36 -20 13 0 1 19 -16 23 -11 3 -20 2 -20 -3z"/>
<path d="M3311 274 c0 -11 3 -14 6 -6 3 7 2 16 -1 19 -3 4 -6 -2 -5 -13z"/>
<path d="M3764 276 c-10 -8 -17 -17 -14 -20 10 -10 50 6 50 20 0 18 -11 18
-36 0z"/>
<path d="M3773 217 c4 -13 67 -15 67 -1 0 5 -16 10 -36 11 -20 1 -34 -3 -31
-10z"/>
<path d="M3190 161 c0 -9 55 -41 69 -41 7 1 -27 27 -51 41 -12 6 -18 6 -18 0z"/>
<path d="M3145 40 c-3 -5 -1 -10 4 -10 6 0 11 5 11 10 0 6 -2 10 -4 10 -3 0
-8 -4 -11 -10z"/>
<path d="M585 10 c-3 -5 -1 -10 4 -10 6 0 11 5 11 10 0 6 -2 10 -4 10 -3 0 -8
-4 -11 -10z"/>
</g>
</svg>
